<svg width="144" height="32" viewBox="0 0 144 32" fill="none" xmlns="http://www.w3.org/2000/svg">
<path d="M15.2591 26.865C15.2734 27.4021 15.1806 27.9367 14.9861 28.4375C14.7915 28.9383 14.4992 29.3954 14.1261 29.782C13.5641 30.3612 12.8403 30.7572 12.0494 30.918C11.2585 31.0787 10.4376 30.9968 9.69405 30.683C8.95029 30.3656 8.31929 29.8317 7.88321 29.1508C7.44712 28.4698 7.22615 27.6733 7.24905 26.865C7.25751 26.1681 7.44929 25.4857 7.80511 24.8864C8.16093 24.2871 8.66824 23.792 9.27605 23.451C9.36605 23.396 9.25205 23.56 9.27605 23.451L11.1361 21.799C12.6105 20.2298 13.434 18.1592 13.4401 16.006C13.4401 13.08 11.7291 10.105 9.27005 8.549C9.36405 8.604 9.23405 8.455 9.27005 8.549C8.66291 8.20751 8.15617 7.71246 7.80059 7.11346C7.44501 6.51445 7.25309 5.83253 7.24405 5.136C7.22941 4.59871 7.32207 4.0639 7.51662 3.56286C7.71116 3.06183 8.00368 2.60462 8.37705 2.218C8.93892 1.63929 9.6624 1.24367 10.4528 1.08291C11.2432 0.922146 12.0638 1.00373 12.8071 1.317C13.5509 1.63423 14.182 2.16811 14.6181 2.84911C15.0542 3.53011 15.2751 4.32666 15.2521 5.135C15.2626 7.30724 16.1025 9.3934 17.6001 10.967L18.4171 11.767C18.7431 12.052 19.0851 12.318 19.4411 12.565C20.0611 12.895 20.5831 13.391 20.9451 13.996C21.2162 14.4489 21.3926 14.9521 21.4636 15.4751C21.5346 15.9982 21.4987 16.5302 21.3581 17.039C21.2175 17.5477 20.9751 18.0227 20.6456 18.4351C20.316 18.8474 19.9063 19.1886 19.4411 19.438C19.3781 19.474 19.4741 19.371 19.4411 19.438C18.1849 20.2321 17.1458 21.3258 16.4171 22.621C15.6865 23.9183 15.2887 25.3764 15.2591 26.865ZM19.7421 5.123C19.7421 5.919 19.9771 6.698 20.4181 7.36C20.8575 8.02107 21.4832 8.53685 22.2161 8.842C22.9482 9.14684 23.7545 9.22661 24.5321 9.07111C25.3098 8.91562 26.0235 8.53192 26.5821 7.969C27.1424 7.40451 27.5237 6.68727 27.6782 5.9071C27.8328 5.12692 27.7538 4.31847 27.4511 3.58299C27.1483 2.84836 26.6347 2.2199 25.9751 1.777C25.2049 1.26028 24.279 1.02767 23.3561 1.11908C22.4332 1.2105 21.5709 1.62023 20.9171 2.278C20.1651 3.034 19.7427 4.05672 19.7421 5.123ZM23.7491 22.84C22.9571 22.84 22.1821 23.076 21.5231 23.518C20.8634 23.9609 20.3498 24.5894 20.0471 25.324C19.744 26.0596 19.6648 26.8683 19.8193 27.6487C19.9739 28.4291 20.3554 29.1465 20.9161 29.711C21.4746 30.2739 22.1883 30.6576 22.966 30.8131C23.7436 30.9686 24.5499 30.8888 25.2821 30.584C26.0151 30.2783 26.6409 29.7618 27.0801 29.1C27.5946 28.3249 27.8259 27.3959 27.7348 26.47C27.6437 25.5441 27.2358 24.678 26.5801 24.018C26.2089 23.6446 25.7677 23.3482 25.2817 23.1457C24.7957 22.9432 24.2745 22.8386 23.7481 22.838V22.84H23.7491ZM34.0001 15.994C34.0001 15.1985 33.7653 14.4206 33.3251 13.758C32.8858 13.0966 32.26 12.5804 31.5271 12.275C30.7948 11.9699 29.9883 11.89 29.2104 12.0455C28.4326 12.201 27.7187 12.5849 27.1601 13.148C26.5994 13.7125 26.2178 14.4298 26.063 15.2102C25.9082 15.9906 25.9872 16.7993 26.2901 17.535C26.593 18.2698 27.107 18.8982 27.7671 19.341C28.5372 19.8578 29.4633 20.0903 30.3862 19.9987C31.3092 19.9071 32.1715 19.4971 32.8251 18.839C33.577 18.0826 33.9994 17.0596 34.0001 15.993V15.994Z" fill="#3D4675"/>
<path d="M5.00597 11.97C4.21297 11.97 3.43897 12.205 2.77997 12.647C2.12023 13.0903 1.60661 13.7191 1.30397 14.454C1.00136 15.1896 0.922492 15.9981 1.07725 16.7783C1.232 17.5584 1.6135 18.2756 2.17397 18.84C2.73328 19.4015 3.44674 19.7842 4.22385 19.9396C5.00097 20.095 5.80674 20.0161 6.53897 19.713C7.27191 19.4076 7.89768 18.8914 8.33697 18.23C8.85139 17.4552 9.08259 16.5265 8.99149 15.601C8.90039 14.6754 8.49258 13.8097 7.83697 13.15C7.46591 12.777 7.02498 12.4808 6.5394 12.2784C6.05381 12.0759 5.53208 11.9711 5.00597 11.97Z" fill="#3D4675"/>
<path d="M52.1 21V7H55.68V21H52.1ZM63.8413 10.72C64.9479 10.72 65.8346 11.1 66.5013 11.86C67.1813 12.6067 67.5213 13.66 67.5213 15.02V21H64.2013V15.44C64.2013 14.9333 64.0679 14.5467 63.8013 14.28C63.5346 14 63.1679 13.86 62.7013 13.86C62.1813 13.86 61.7746 14.02 61.4813 14.34C61.2013 14.6467 61.0613 15.0933 61.0613 15.68V21H57.7413V11H61.0613V12C61.6613 11.1467 62.5879 10.72 63.8413 10.72ZM73.6689 16.74L75.5289 11H79.2089L75.4689 21H71.8689L68.1289 11H71.8089L73.6689 16.74ZM89.5544 17.22H82.6544C82.9877 18.0333 83.7344 18.44 84.8944 18.44C85.601 18.44 86.2077 18.2067 86.7144 17.74L89.1144 19.42C88.141 20.66 86.7077 21.28 84.8144 21.28C83.121 21.28 81.761 20.7867 80.7344 19.8C79.721 18.8 79.2144 17.54 79.2144 16.02C79.2144 14.5133 79.7144 13.2533 80.7144 12.24C81.7144 11.2267 82.9877 10.72 84.5344 10.72C86.0277 10.72 87.261 11.22 88.2344 12.22C89.2077 13.2067 89.6944 14.46 89.6944 15.98C89.6944 16.4467 89.6477 16.86 89.5544 17.22ZM82.6144 14.92H86.4544C86.201 13.9867 85.5744 13.52 84.5744 13.52C83.5477 13.52 82.8944 13.9867 82.6144 14.92ZM93.9095 13.92C93.9095 14.0933 94.0495 14.24 94.3295 14.36C94.6229 14.4667 95.0629 14.5867 95.6495 14.72C96.0495 14.8 96.4162 14.9067 96.7495 15.04C97.0962 15.16 97.4362 15.34 97.7695 15.58C98.1162 15.8067 98.3829 16.1267 98.5695 16.54C98.7695 16.94 98.8695 17.4 98.8695 17.92C98.8695 19.08 98.4429 19.9267 97.5895 20.46C96.7229 21.0067 95.7095 21.28 94.5495 21.28C92.3095 21.28 90.8162 20.4867 90.0695 18.9L92.9695 17.44C93.2229 18.1733 93.7429 18.54 94.5295 18.54C95.1295 18.54 95.4295 18.36 95.4295 18C95.4295 17.8267 95.2895 17.6867 95.0095 17.58C94.7429 17.46 94.3095 17.3267 93.7095 17.18C93.3095 17.1 92.9429 16.9933 92.6095 16.86C92.2895 16.7133 91.9562 16.5267 91.6095 16.3C91.2762 16.0733 91.0162 15.7733 90.8295 15.4C90.6429 15.0133 90.5495 14.5733 90.5495 14.08C90.5495 13.0133 90.9429 12.1867 91.7295 11.6C92.5162 11.0133 93.4629 10.72 94.5695 10.72C96.5295 10.72 97.9029 11.4933 98.6895 13.04L95.8895 14.3C95.5962 13.7267 95.1829 13.44 94.6495 13.44C94.1562 13.44 93.9095 13.6 93.9095 13.92ZM106.07 11V14.18H103.99V17.08C103.99 17.5067 104.137 17.78 104.43 17.9C104.737 18.0067 105.283 18.04 106.07 18V21C104.097 21.24 102.697 21.06 101.87 20.46C101.07 19.8333 100.67 18.7333 100.67 17.16V14.18H99.1702V11H100.67V9.2L103.99 8.2V11H106.07ZM115.401 12.18V7H118.961V21H115.401V15.62H111.461V21H107.881V7H111.461V12.18H115.401ZM127.382 16.32V11H130.702V21H127.382V20C126.782 20.8533 125.855 21.28 124.602 21.28C123.495 21.28 122.602 20.9067 121.922 20.16C121.255 19.4 120.922 18.34 120.922 16.98V11H124.242V16.56C124.242 17.0667 124.375 17.46 124.642 17.74C124.909 18.0067 125.275 18.14 125.742 18.14C126.262 18.14 126.662 17.9867 126.942 17.68C127.235 17.36 127.382 16.9067 127.382 16.32ZM138.784 10.72C140.117 10.72 141.231 11.2267 142.124 12.24C143.031 13.2533 143.484 14.5067 143.484 16C143.484 17.4933 143.031 18.7533 142.124 19.78C141.217 20.78 140.104 21.28 138.784 21.28C137.571 21.28 136.624 20.88 135.944 20.08V21H132.624V7H135.944V11.92C136.624 11.12 137.571 10.72 138.784 10.72ZM136.524 17.58C136.911 17.98 137.417 18.18 138.044 18.18C138.671 18.18 139.177 17.98 139.564 17.58C139.951 17.1667 140.144 16.64 140.144 16C140.144 15.36 139.951 14.8333 139.564 14.42C139.177 14.02 138.671 13.82 138.044 13.82C137.417 13.82 136.911 14.02 136.524 14.42C136.137 14.8333 135.944 15.36 135.944 16C135.944 16.64 136.137 17.1667 136.524 17.58Z" fill="black"/>
</svg>
