<svg width="154" height="28" viewBox="0 0 154 28" fill="none" xmlns="http://www.w3.org/2000/svg">
<g clip-path="url(#clip0_14_315)">
<mask id="mask0_14_315" style="mask-type:luminance" maskUnits="userSpaceOnUse" x="0" y="0" width="28" height="28">
<path d="M28 0H0V28H28V0Z" fill="white"/>
</mask>
<g mask="url(#mask0_14_315)">
<path fill-rule="evenodd" clip-rule="evenodd" d="M0 14L1.06811e-06 0H14H28V14C20.2692 14 14.0018 7.73384 14 0.00334961C13.9982 7.73384 7.73086 14 0 14ZM14 28C14 20.2679 20.2681 14 28 14V28H14ZM14 28C14 20.2679 7.73199 14 0 14V28H14Z" fill="url(#paint0_linear_14_315)"/>
</g>
</g>
<path d="M57.08 18.28C55.7067 18.28 54.5467 17.9733 53.6 17.36C52.6533 16.7467 51.98 15.9 51.58 14.82L53.94 13.44C54.4867 14.8667 55.56 15.58 57.16 15.58C57.9067 15.58 58.4667 15.4467 58.84 15.18C59.2133 14.9133 59.4 14.5533 59.4 14.1C59.4 13.6067 59.18 13.2267 58.74 12.96C58.3 12.68 57.5133 12.38 56.38 12.06C55.1533 11.6867 54.1867 11.2533 53.48 10.76C52.6 10.1067 52.16 9.14667 52.16 7.88C52.16 6.6 52.6067 5.59333 53.5 4.86C54.3933 4.1 55.48 3.72 56.76 3.72C57.88 3.72 58.8733 3.99333 59.74 4.54C60.6067 5.08667 61.28 5.86 61.76 6.86L59.44 8.2C58.88 7 57.9867 6.4 56.76 6.4C56.2 6.4 55.7533 6.53333 55.42 6.8C55.0867 7.05333 54.92 7.38667 54.92 7.8C54.92 8.24 55.1 8.6 55.46 8.88C55.86 9.16 56.5667 9.45333 57.58 9.76L58.54 10.08C58.7133 10.1333 59.0133 10.2467 59.44 10.42C59.84 10.5667 60.1333 10.7067 60.32 10.84C60.9733 11.24 61.4133 11.6533 61.64 12.08C61.9867 12.64 62.16 13.3 62.16 14.06C62.16 15.3533 61.6867 16.38 60.74 17.14C59.7933 17.9 58.5733 18.28 57.08 18.28ZM73.8336 14.06H66.2936C66.6269 15.3133 67.5669 15.94 69.1136 15.94C70.1003 15.94 70.8469 15.6067 71.3536 14.94L73.4336 16.14C72.4469 17.5667 70.9936 18.28 69.0736 18.28C67.4203 18.28 66.0936 17.78 65.0936 16.78C64.0936 15.78 63.5936 14.52 63.5936 13C63.5936 11.5067 64.0869 10.2533 65.0736 9.24C66.0469 8.22667 67.3136 7.72 68.8736 7.72C70.3536 7.72 71.5603 8.22667 72.4936 9.24C73.4536 10.2533 73.9336 11.5067 73.9336 13C73.9336 13.28 73.9003 13.6333 73.8336 14.06ZM66.2536 12.06H71.3536C71.2069 11.4067 70.9069 10.9067 70.4536 10.56C70.0136 10.2133 69.4869 10.04 68.8736 10.04C68.1803 10.04 67.6069 10.22 67.1536 10.58C66.7003 10.9267 66.4003 11.42 66.2536 12.06ZM85.3766 14.06H77.8366C78.1699 15.3133 79.1099 15.94 80.6566 15.94C81.6432 15.94 82.3899 15.6067 82.8966 14.94L84.9766 16.14C83.9899 17.5667 82.5366 18.28 80.6166 18.28C78.9632 18.28 77.6366 17.78 76.6366 16.78C75.6366 15.78 75.1366 14.52 75.1366 13C75.1366 11.5067 75.6299 10.2533 76.6166 9.24C77.5899 8.22667 78.8566 7.72 80.4166 7.72C81.8966 7.72 83.1032 8.22667 84.0366 9.24C84.9966 10.2533 85.4766 11.5067 85.4766 13C85.4766 13.28 85.4432 13.6333 85.3766 14.06ZM77.7966 12.06H82.8966C82.7499 11.4067 82.4499 10.9067 81.9966 10.56C81.5566 10.2133 81.0299 10.04 80.4166 10.04C79.7232 10.04 79.1499 10.22 78.6966 10.58C78.2432 10.9267 77.9432 11.42 77.7966 12.06ZM94.7795 9.18V4H97.3595V18H94.7795V16.82C94.0195 17.7933 92.9395 18.28 91.5395 18.28C90.1929 18.28 89.0395 17.7733 88.0795 16.76C87.1329 15.7333 86.6595 14.48 86.6595 13C86.6595 11.5333 87.1329 10.2867 88.0795 9.26C89.0395 8.23333 90.1929 7.72 91.5395 7.72C92.9395 7.72 94.0195 8.20667 94.7795 9.18ZM90.0195 15.04C90.5662 15.56 91.2329 15.82 92.0195 15.82C92.8195 15.82 93.4795 15.56 93.9995 15.04C94.5195 14.5067 94.7795 13.8267 94.7795 13C94.7795 12.1733 94.5195 11.5 93.9995 10.98C93.4795 10.4467 92.8195 10.18 92.0195 10.18C91.2195 10.18 90.5529 10.4467 90.0195 10.98C89.4995 11.5 89.2395 12.1733 89.2395 13C89.2395 13.8267 89.4995 14.5067 90.0195 15.04ZM102.599 4V15.36H107.939V18H99.8391V4H102.599ZM110.667 6.8C110.24 6.8 109.867 6.64667 109.547 6.34C109.24 6.02 109.087 5.64667 109.087 5.22C109.087 4.79333 109.24 4.42 109.547 4.1C109.867 3.78 110.24 3.62 110.667 3.62C111.107 3.62 111.48 3.78 111.787 4.1C112.107 4.42 112.267 4.79333 112.267 5.22C112.267 5.64667 112.107 6.02 111.787 6.34C111.48 6.64667 111.107 6.8 110.667 6.8ZM111.967 18H109.387V8H111.967V18ZM119.888 7.72C120.995 7.72 121.895 8.08667 122.588 8.82C123.308 9.56667 123.668 10.58 123.668 11.86V18H121.088V12.18C121.088 11.5267 120.908 11.02 120.548 10.66C120.202 10.3 119.722 10.12 119.108 10.12C118.428 10.12 117.888 10.3333 117.488 10.76C117.102 11.1733 116.908 11.7867 116.908 12.6V18H114.328V8H116.908V9.12C117.522 8.18667 118.515 7.72 119.888 7.72ZM130.951 12.94L135.091 18H132.091L128.451 13.46V18H125.871V4H128.451V12.4L131.891 8H134.971L130.951 12.94ZM145.377 14.06H137.837C138.17 15.3133 139.11 15.94 140.657 15.94C141.643 15.94 142.39 15.6067 142.897 14.94L144.977 16.14C143.99 17.5667 142.537 18.28 140.617 18.28C138.963 18.28 137.637 17.78 136.637 16.78C135.637 15.78 135.137 14.52 135.137 13C135.137 11.5067 135.63 10.2533 136.617 9.24C137.59 8.22667 138.857 7.72 140.417 7.72C141.897 7.72 143.103 8.22667 144.037 9.24C144.997 10.2533 145.477 11.5067 145.477 13C145.477 13.28 145.443 13.6333 145.377 14.06ZM137.797 12.06H142.897C142.75 11.4067 142.45 10.9067 141.997 10.56C141.557 10.2133 141.03 10.04 140.417 10.04C139.723 10.04 139.15 10.22 138.697 10.58C138.243 10.9267 137.943 11.42 137.797 12.06ZM149.858 8V9.72C150.084 9.09333 150.471 8.62 151.018 8.3C151.564 7.96667 152.191 7.8 152.898 7.8V10.68C152.111 10.5733 151.404 10.7333 150.778 11.16C150.164 11.5733 149.858 12.26 149.858 13.22V18H147.278V8H149.858Z" fill="black"/>
<defs>
<linearGradient id="paint0_linear_14_315" x1="2.87" y1="2.24" x2="14" y2="28" gradientUnits="userSpaceOnUse">
<stop stop-color="#ACAAFF"/>
<stop offset="1" stop-color="#C0E8FF"/>
</linearGradient>
<clipPath id="clip0_14_315">
<rect width="28" height="28" fill="white"/>
</clipPath>
</defs>
</svg>
